<svg version="1.1" id="Layer_1" xmlns="http://www.w3.org/2000/svg" xmlns:xlink="http://www.w3.org/1999/xlink" x="0px" y="0px"
	 viewBox="0 0 304.1 268" style="enable-background:new 0 0 304.1 268;" xml:space="preserve">
<path d="M266.5,47h-57.6V35.1c0-19.4-13.3-35.1-29.7-35.1h-54.4c-16.4,0-29.7,15.8-29.7,35.1V47H37.6
	C16.9,47,0,63.9,0,84.6v145.8C0,251.1,16.9,268,37.6,268h228.9c20.7,0,37.6-16.9,37.6-37.6V84.6C304.1,63.9,287.3,47,266.5,47z
	 M115.8,47V35.1c0-8.3,4.8-14.5,9.1-14.5h54.4c4.3,0,9.1,6.2,9.1,14.5V47H115.8z M283.5,126.9h-88.7c-13.3,0-24.1,10.8-24.1,24.1
	v3.5c0,2.5-2,4.5-4.5,4.5H138c-2.5,0-4.5-2-4.5-4.5V151c0-13.3-10.8-24.1-24.1-24.1H20.6V84.6c0-9.4,7.6-17,17-17h228.9
	c9.4,0,17,7.6,17,17V126.9z M20.6,149.6h88.7c0.8,0,1.4,0.6,1.4,1.4v3.5c0,15,12.2,27.2,27.2,27.2h28.2c15,0,27.2-12.2,27.2-27.2
	V151c0-0.8,0.6-1.4,1.4-1.4h88.7v80.8c0,9.4-7.6,17-17,17H37.6c-9.4,0-17-7.6-17-17V149.6z"/>
</svg>
