<svg version="1.1" id="Layer_1" xmlns="http://www.w3.org/2000/svg" xmlns:xlink="http://www.w3.org/1999/xlink" x="0px" y="0px"
	 viewBox="0 0 116.6 162" style="enable-background:new 0 0 116.6 162;" xml:space="preserve">
<g>
	<path d="M24.1,162c-7.3,0-14.6-1.8-21.4-5.6c-2.6-1.5-3.5-4.7-2-7.3c1.5-2.6,4.7-3.5,7.3-2c7.7,4.3,16.6,5.4,25,3
		c8.5-2.4,15.5-7.9,19.9-15.6l50-88.6c6.4-11.3,2.4-25.7-9-32.1c-11.3-6.4-25.7-2.4-32.1,9L16,103.8c-1.8,3.1-2.2,6.7-1.2,10.2
		s3.2,6.3,6.3,8c3.1,1.8,6.7,2.2,10.2,1.2c3.4-1,6.3-3.2,8.1-6.3L67,67.8c1.5-2.6,4.7-3.5,7.3-2c2.6,1.5,3.5,4.7,2,7.3l-27.7,49.2
		c-3.2,5.6-8.3,9.6-14.5,11.4c-6.2,1.7-12.7,0.9-18.3-2.2c-5.6-3.2-9.6-8.3-11.4-14.5s-0.9-12.7,2.2-18.3l45.7-81.1
		C61.7,1,82.7-4.9,99.2,4.4c16.5,9.3,22.3,30.2,13,46.7l-50,88.6C54.2,154,39.4,162,24.1,162z"/>
</g>
</svg>
