<svg version="1.1" id="svg14732" xmlns="http://www.w3.org/2000/svg" xmlns:xlink="http://www.w3.org/1999/xlink" x="0px" y="0px"
	 viewBox="0 0 334 111" style="enable-background:new 0 0 334 111;" xml:space="preserve" class="logo_proxima">
<style type="text/css">
	.logo_proxima .st0{fill:#E2231A;}
	.logo_proxima .st1{fill:#282729;}
	.logo_proxima .st2{fill:#9C2816;}

	.-light .logo_proxima .st0{fill:#FFF;}
	.-light .logo_proxima .st1{fill:#FFF;}
	.-light .logo_proxima .st2{fill:#FFF;}


	.-index .logo_proxima .st0{fill:#FFF;}
	.-index .logo_proxima .st1{fill:#FFF;}
	.-index .logo_proxima .st2{fill:#FFF;}
</style>
<g id="layer1" transform="translate(-453.14994,-502.37644)" groupmode="layer" label="Layer 1">
	<g id="g14665" transform="matrix(1.000899,0,0,1.000899,2449.443,3034.7513)">
		<polygon id="polygon4564" class="st0" points="-1994.2,-2486 -1987.2,-2496.9 -1962.1,-2473.6 -1969.1,-2442.6 		"/>
		<path id="path4566" connector-curvature="0" class="st0" d="M-1993.9-2486l24.6,42.6l6.8-30l-24.7-22.9L-1993.9-2486
			L-1993.9-2486z M-1969.4-2442.4l-25.1-43.5v-0.3l7-10.8l0.5-0.1l25.2,23.3l0.1,0.3l-7,31L-1969.4-2442.4z"/>
		<path id="path4570" connector-curvature="0" class="st1" d="M-1883.2-2469.5h4.2c1.9,0,6.1-0.3,6.1-5s-4.2-5-6.1-5h-4.2
			V-2469.5z M-1890.3-2486.4h10.7c12.3,0,13.7,8.3,13.7,12c0,4.8-2.6,11.8-13.7,11.8h-3.6v14.5h-7.1V-2486.4z"/>
		<path id="path4572" connector-curvature="0" class="st1" d="M-1854.2-2468.1h4.2c1.7,0,7.1-0.2,7.1-5.7s-5.4-5.7-7.1-5.7
			h-4.2V-2468.1z M-1861.3-2486.4h11.1c12.9,0,14.4,8.5,14.4,12.2c0,6.1-4.1,11.4-10.3,12l10.8,14.1h-8.7l-9.9-14.1h-0.1v14.1h-7.1
			v-38.3H-1861.3z"/>
		<path id="path4574" connector-curvature="0" class="st1" d="M-1800-2467.2c0-7.1-5.6-13-13.1-13s-13.1,5.8-13.1,13
			s5.6,13.1,13,13.1C-1805.5-2454-1800-2460-1800-2467.2 M-1792.9-2467c0,11.1-8.8,19.9-20.2,19.9c-11.4,0-20.2-8.8-20.2-19.9
			c0-11.1,8.7-20,20.2-20C-1801.6-2487.1-1792.9-2478.1-1792.9-2467"/>
		<polygon id="polygon4576" class="st1" points="-1760,-2486.4 -1773.2,-2467.2 -1760,-2448.1 -1768.3,-2448.1 -1777.4,-2461.3
			-1786.4,-2448.1 -1794.7,-2448.1 -1781.5,-2467.2 -1794.7,-2486.4 -1786.4,-2486.4 -1777.4,-2473.1 -1768.3,-2486.4 		"/>
		<rect id="rect4578" x="-1756.1" y="-2486.4" class="st1" width="7.1" height="38.3"/>
		<polygon id="polygon4580" class="st1" points="-1711.9,-2486.4 -1702.2,-2486.4 -1702.2,-2448.1 -1709.3,-2448.1 -1709.3,-2476.8
			-1719,-2448.1 -1725,-2448.1 -1734.7,-2476.8 -1734.7,-2448.1 -1741.8,-2448.1 -1741.8,-2486.4 -1732.2,-2486.4 -1722,-2457.1
			"/>
		<path id="path4582" connector-curvature="0" class="st1" d="M-1675.2-2464.9l-4.3-11.2l-4.3,11.2H-1675.2L-1675.2-2464.9
			z M-1682.4-2486.4h5.7l15.9,38.3h-7.8l-3.9-9.9h-14.1l-3.9,9.9h-7.8L-1682.4-2486.4L-1682.4-2486.4z"/>
		<path id="path4586" connector-curvature="0" class="st0" d="M-1803.9-2427.6c-0.9,2.5-2.9,4.2-5.8,4.2
			c-4.4,0-6.5-3.4-6.5-6.4c0-2.7,2-6.2,6.4-6.2c3,0,5.2,1.7,5.9,4.3h-3.2c-0.6-1.1-1.6-1.6-2.8-1.6c-2.3,0-3.5,1.7-3.5,3.6
			c0,2,1.4,3.6,3.5,3.6c0.5,0,2-0.1,2.8-1.5L-1803.9-2427.6L-1803.9-2427.6z"/>
		<path id="path4588" connector-curvature="0" class="st0" d="M-1799.9-2429.6c0,2,1.4,3.5,3.5,3.5c2,0,3.4-1.5,3.4-3.6
			c0-2-1.3-3.6-3.4-3.6C-1798.4-2433.3-1799.9-2431.7-1799.9-2429.6 M-1790.3-2423.8h-2.6v-1.6l0,0c-1.4,1.9-3.3,2-3.9,2
			c-3,0-5.8-2.4-5.8-6.2c0-3.7,2.6-6.4,5.9-6.4c1.7,0,3,0.7,3.9,2l0,0v-1.7h2.6L-1790.3-2423.8L-1790.3-2423.8z"/>
		<path id="path4590" connector-curvature="0" class="st0" d="M-1785.4-2429.7c0,2.3,1.4,3.6,3.4,3.6s3.5-1.5,3.5-3.6
			c0-1.6-1-3.6-3.4-3.6C-1784-2433.3-1785.4-2431.7-1785.4-2429.7 M-1788-2435.6h2.6v1.5l0,0c1-1.6,2.9-1.9,3.8-1.9
			c3.2,0,5.9,2.5,5.9,6.3c0,3.2-2.2,6.3-5.9,6.3c-1,0-2.4-0.3-3.6-1.7l0,0v5.2h-2.8V-2435.6L-1788-2435.6z"/>
		<path id="path4592" connector-curvature="0" class="st0" d="M-1773.9-2435.6h2.8v11.8h-2.8V-2435.6z M-1773.9-2439.5h2.8
			v2.6h-2.8V-2439.5z"/>
		<polygon id="polygon4594" class="st0" points="-1765.6,-2439.5 -1765.6,-2435.6 -1763.9,-2435.6 -1763.9,-2433.1 -1765.6,-2433.1
			-1765.6,-2423.8 -1768.4,-2423.8 -1768.4,-2433.1 -1769.8,-2433.1 -1769.8,-2435.6 -1768.4,-2435.6 -1768.4,-2439.5 		"/>
		<path id="path4598" connector-curvature="0" class="st0" d="M-1760.2-2429.6c0,2,1.4,3.5,3.5,3.5c2,0,3.4-1.5,3.4-3.6
			c0-2-1.3-3.6-3.4-3.6S-1760.2-2431.7-1760.2-2429.6 M-1750.7-2423.8h-2.6v-1.6l0,0c-1.4,1.9-3.3,2-3.9,2c-3,0-5.8-2.4-5.8-6.2
			c0-3.7,2.6-6.4,5.9-6.4c1.7,0,3,0.7,3.9,2l0,0v-1.7h2.6L-1750.7-2423.8L-1750.7-2423.8z"/>
		<rect id="rect4600" x="-1748.4" y="-2439.5" class="st0" width="2.8" height="15.8"/>
		<path id="path4604" connector-curvature="0" class="st0" d="M-1736.1-2429.9c0,1.9,1.2,3.5,3.4,3.5
			c2.1,0,3.4-1.6,3.4-3.4c0-2.1-1.4-3.5-3.4-3.5C-1734.9-2433.3-1736.1-2431.6-1736.1-2429.9 M-1726.5-2425.6c0,4.2-3.1,6.4-6.3,6.4
			c-2.8,0-5.2-1.5-5.9-4.3h3.3c0.5,1.6,2.3,1.6,2.6,1.6c2,0,3.5-1.5,3.5-3.2v-0.4l0,0c-0.3,0.5-1.3,1.9-3.5,1.9c-3.3,0-6-2.8-6-6.2
			c0-3.6,2.8-6.1,6-6.1c0.9,0,2.6,0.2,3.7,2l0,0v-1.6h2.6L-1726.5-2425.6L-1726.5-2425.6z"/>
		<path id="path4606" connector-curvature="0" class="st0" d="M-1724.2-2435.6h2.6v1.1l0,0c0.6-1,1.6-1.6,2.7-1.4v2.7
			c-2.6,0-2.5,2.4-2.5,3.1v6.4h-2.8L-1724.2-2435.6L-1724.2-2435.6z"/>
		<path id="path4608" connector-curvature="0" class="st0" d="M-1715.2-2429.7c0,1.9,1.3,3.6,3.4,3.6s3.4-1.7,3.4-3.6
			c0-1.9-1.3-3.6-3.4-3.6C-1713.8-2433.3-1715.2-2431.6-1715.2-2429.7 M-1705.5-2429.7c0,3.4-2.7,6.3-6.3,6.3
			c-3.6,0-6.3-2.8-6.3-6.3s2.6-6.3,6.3-6.3C-1708.1-2436-1705.5-2433.1-1705.5-2429.7"/>
		<path id="path4610" connector-curvature="0" class="st0" d="M-1693.3-2423.8h-2.6v-1.1l0,0c-1,1.3-2.3,1.5-3.1,1.5
			c-4.5,0-4.8-3.9-4.8-5.8v-6.4h2.8v6c0,1.3,0.1,3.5,2.4,3.5s2.4-2.2,2.4-3.5v-6h2.8L-1693.3-2423.8L-1693.3-2423.8z"/>
		<path id="path4612" connector-curvature="0" class="st0" d="M-1688.3-2429.7c0,2.3,1.4,3.6,3.4,3.6s3.5-1.5,3.5-3.6
			c0-1.6-1-3.6-3.4-3.6C-1686.9-2433.3-1688.3-2431.7-1688.3-2429.7 M-1691-2435.6h2.6v1.5l0,0c1-1.6,2.9-1.9,3.8-1.9
			c3.2,0,5.9,2.5,5.9,6.3c0,3.2-2.2,6.3-5.9,6.3c-1,0-2.5-0.3-3.6-1.7l0,0v5.2h-2.8V-2435.6L-1691-2435.6z"/>
		<polygon id="polygon4614" class="st2" points="-1958.3,-2448.1 -1928.8,-2448.1 -1904.3,-2486.1 -1940.4,-2480 		"/>
		<path id="path4616" connector-curvature="0" class="st2" d="M-1957.7-2448.4h28.8l23.9-37.3l-35.2,6L-1957.7-2448.4
			L-1957.7-2448.4z M-1928.8-2447.8h-29.5l-0.3-0.5l17.8-31.9l0.2-0.2l36.1-6.2l0.3,0.5l-24.4,38L-1928.8-2447.8L-1928.8-2447.8z"/>
		<polygon id="polygon4618" class="st2" points="-1994.2,-2486 -1958.1,-2492.2 -1940.3,-2524.1 -1969.8,-2524.1 		"/>
		<path id="path4620" connector-curvature="0" class="st2" d="M-1969.6-2523.8l-24,37.3l35.2-6l17.5-31.3H-1969.6z
			 M-1994.2-2485.7l-0.3-0.5l24.4-38l0.3-0.1h29.5l0.3,0.5l-17.9,31.9l-0.2,0.2L-1994.2-2485.7L-1994.2-2485.7z"/>
		<polygon id="polygon4622" class="st0" points="-1904.3,-2486.1 -1911.3,-2475.3 -1936.5,-2498.6 -1929.5,-2529.6 		"/>
		<path id="path4624" connector-curvature="0" class="st0" d="M-1936.1-2498.7l24.8,22.9l6.7-10.3l-24.6-42.6
			L-1936.1-2498.7L-1936.1-2498.7z M-1911.5-2475.1l-25.2-23.3l-0.1-0.3l7-31l0.6-0.1l25.1,43.5v0.3l-7,10.8L-1911.5-2475.1z"/>
	</g>
</g>
</svg>
