<svg version="1.1" id="Layer_1" xmlns="http://www.w3.org/2000/svg" xmlns:xlink="http://www.w3.org/1999/xlink" x="0px" y="0px"
	 viewBox="0 0 12.4 21.5" style="enable-background:new 0 0 12.4 21.5;" xml:space="preserve">
<g id="surface1">
	<path d="M6.2,3.2c1.3,0,2.3,1,2.3,2.3c0,1.3-1,2.3-2.3,2.3s-2.3-1-2.3-2.3C3.9,4.3,5,3.2,6.2,3.2z M6.2,11.1
		c3.1,0,5.5-2.5,5.5-5.5C11.8,2.5,9.3,0,6.2,0S0.7,2.5,0.7,5.5C0.7,8.6,3.2,11.1,6.2,11.1z M8.5,15.6c1.1-0.3,2.2-0.7,3.2-1.3
		c0.8-0.5,1-1.5,0.5-2.2c-0.5-0.8-1.5-1-2.2-0.5c-2.3,1.4-5.2,1.4-7.5,0C1.7,11,0.7,11.3,0.2,12c-0.5,0.8-0.2,1.8,0.5,2.2
		c1,0.6,2.1,1.1,3.2,1.3l-3.1,3.1c-0.6,0.6-0.6,1.7,0,2.3c0.3,0.3,0.7,0.5,1.1,0.5s0.8-0.2,1.2-0.5l3-3l3,3c0.6,0.6,1.7,0.6,2.3,0
		c0.6-0.6,0.6-1.7,0-2.3L8.5,15.6z"/>
</g>
</svg>
