<svg version="1.1" id="Layer_1" xmlns="http://www.w3.org/2000/svg" xmlns:xlink="http://www.w3.org/1999/xlink" x="0px" y="0px"
	 viewBox="0 0 16.8 13.7" style="enable-background:new 0 0 16.8 13.7;" xml:space="preserve">
<path d="M11.3,0L11.3,0L12,0l0.3,0.1c0.2,0,0.4,0.1,0.5,0.1c0.2,0.1,0.3,0.1,0.5,0.2c0.1,0.1,0.3,0.2,0.4,0.2
	c0.1,0.1,0.2,0.2,0.3,0.3C14.1,1,14.3,1,14.5,1c0.2,0,0.4-0.1,0.6-0.2c0.2-0.1,0.5-0.2,0.7-0.3c0.2-0.1,0.4-0.2,0.4-0.2
	c0,0,0.1,0,0.1,0l0,0l0,0l0,0l0,0l0,0l0,0l0,0l0,0l0,0l0,0l0,0l0,0l0,0l0,0l0,0l0,0l0,0l0,0c0,0,0,0,0,0.1c0,0-0.1,0.1-0.1,0.3
	S16,1.1,15.8,1.3c-0.1,0.2-0.3,0.3-0.4,0.4c-0.1,0.1-0.2,0.2-0.2,0.2c0,0-0.1,0.1-0.1,0.1L15,2.1l0,0l0,0l0,0l0,0l0,0l0,0l0,0l0,0
	l0,0l0,0l0,0l0,0l0,0l0,0l0,0l0,0H15L15.4,2C15.7,2,16,1.9,16.2,1.8l0.4-0.1l0,0l0,0l0,0l0,0l0,0l0,0l0,0l0,0v0l0,0l0,0l0,0l0,0l0,0
	l0,0l0,0l0,0l0,0l0,0l0,0l0,0l0,0l0,0l0,0c0,0-0.1,0.1-0.2,0.3c-0.1,0.2-0.2,0.3-0.2,0.3c0,0,0,0,0,0c0,0-0.1,0.1-0.3,0.3
	c-0.2,0.2-0.4,0.4-0.6,0.5c-0.2,0.2-0.3,0.3-0.3,0.6c0,0.2,0,0.5,0,0.8c0,0.3-0.1,0.6-0.1,0.9c-0.1,0.3-0.1,0.7-0.3,1.1
	c-0.1,0.4-0.3,0.8-0.4,1.2c-0.2,0.4-0.3,0.7-0.5,1.1c-0.2,0.3-0.3,0.6-0.5,0.8c-0.2,0.2-0.3,0.4-0.5,0.6c-0.2,0.2-0.4,0.4-0.6,0.6
	c-0.2,0.2-0.4,0.4-0.4,0.4c0,0-0.1,0.1-0.3,0.2c-0.2,0.1-0.4,0.3-0.6,0.4c-0.2,0.1-0.4,0.3-0.5,0.4c-0.2,0.1-0.4,0.2-0.6,0.3
	c-0.2,0.1-0.5,0.2-0.8,0.3c-0.3,0.1-0.6,0.2-0.9,0.3c-0.3,0.1-0.6,0.2-0.9,0.2c-0.3,0.1-0.6,0.1-1,0.1l-0.5,0.1v0h-1v0l-0.1,0
	c-0.1,0-0.2,0-0.2,0c-0.1,0-0.3,0-0.6-0.1c-0.4-0.1-0.7-0.1-0.9-0.2c-0.2-0.1-0.5-0.1-0.9-0.3C1.6,13,1.3,12.8,1,12.7
	c-0.3-0.1-0.5-0.2-0.5-0.3c-0.1,0-0.2-0.1-0.2-0.1l-0.1-0.1l0,0l0,0l0,0l0,0l0,0l0,0l0,0l0,0l0,0l0,0l0,0l0,0h0v0l0,0l0,0l0.1,0
	c0,0,0.2,0,0.4,0c0.2,0,0.4,0,0.6,0c0.2,0,0.5,0,0.7-0.1c0.2,0,0.5-0.1,0.8-0.2c0.3-0.1,0.6-0.2,0.9-0.3c0.3-0.1,0.5-0.2,0.6-0.3
	c0.1-0.1,0.3-0.2,0.5-0.3L5,10.8l0,0l0,0l0,0l0,0l0,0l0,0l0,0l0,0l0,0l0,0l0,0l0,0l0,0l0,0l-0.1,0c-0.1,0-0.2,0-0.2,0
	c-0.1,0-0.2,0-0.4-0.1c-0.2,0-0.3-0.1-0.5-0.2c-0.2-0.1-0.4-0.2-0.5-0.3C3.1,10,3,9.9,2.9,9.9C2.8,9.8,2.7,9.7,2.6,9.5
	C2.5,9.4,2.4,9.3,2.3,9.1C2.2,9,2.1,8.8,2,8.6L1.9,8.4l0,0l0,0l0,0l0,0l0,0l0,0l0.2,0c0.1,0,0.3,0,0.5,0c0.2,0,0.4,0,0.5,0
	s0.1,0,0.2,0l0,0l0,0l0,0l0,0l0,0l0,0l0,0l0,0l0,0l0,0l0,0l0,0c0,0-0.1,0-0.1,0C3.1,8.2,2.9,8.1,2.7,8C2.5,7.9,2.3,7.8,2.2,7.7
	C2.1,7.6,1.9,7.5,1.8,7.4C1.7,7.3,1.6,7.2,1.4,7C1.3,6.8,1.2,6.6,1,6.4C0.9,6.2,0.8,6,0.8,5.7C0.7,5.5,0.7,5.3,0.7,5.1l0-0.3l0,0
	l0,0l0,0l0,0l0,0l0,0L1,4.9C1.1,5,1.3,5.1,1.6,5.1C1.8,5.2,1.9,5.2,2,5.2l0.1,0h0.1l0,0l0,0l0,0l0,0l0,0l0,0l0,0l0,0l0,0l0,0l0,0
	l0,0l0,0l0,0l0,0l0,0l0,0c0,0,0,0-0.1-0.1C1.9,5,1.8,4.9,1.7,4.8C1.6,4.7,1.5,4.6,1.4,4.5C1.3,4.4,1.2,4.2,1.2,4.1
	C1.1,4,1,3.8,0.9,3.6C0.9,3.4,0.8,3.2,0.8,3c0-0.2-0.1-0.4-0.1-0.6c0-0.2,0-0.4,0-0.5c0-0.1,0-0.3,0.1-0.5S0.9,1.1,1,1l0.1-0.3l0,0
	l0,0l0,0l0,0l0,0l0,0l0,0l0,0l0,0l0,0l0,0l0,0l0,0l0,0l0,0l0,0l0,0l0,0l0.2,0.2c0.1,0.2,0.3,0.3,0.5,0.5c0.2,0.2,0.3,0.3,0.3,0.3
	c0,0,0,0,0.1,0.1c0,0,0.1,0.1,0.3,0.3C2.8,2.2,3,2.3,3.3,2.5c0.3,0.2,0.6,0.4,0.9,0.6c0.3,0.2,0.7,0.3,1.1,0.5
	C5.7,3.7,6,3.8,6.1,3.9C6.3,3.9,6.5,4,6.9,4s0.7,0.1,0.9,0.1c0.2,0,0.3,0,0.4,0l0.1,0l0,0l0,0l0-0.2c0-0.1,0-0.3,0-0.5
	c0-0.2,0-0.4,0.1-0.6c0-0.2,0.1-0.4,0.2-0.6C8.5,2,8.6,1.9,8.6,1.8c0.1-0.1,0.2-0.3,0.3-0.4C9,1.2,9.2,1.1,9.3,0.9
	c0.2-0.2,0.4-0.3,0.6-0.4c0.2-0.1,0.4-0.2,0.6-0.3c0.2-0.1,0.4-0.1,0.5-0.1C11.2,0,11.3,0,11.3,0z"/>
</svg>
