<svg version="1.1" id="Layer_1" xmlns="http://www.w3.org/2000/svg" xmlns:xlink="http://www.w3.org/1999/xlink" x="0px" y="0px"
	 viewBox="0 0 200 200" style="enable-background:new 0 0 200 200;" xml:space="preserve">
<path d="M100.6,105.9h1.3c0,0,0.4,0,0.6-0.3c0.2-0.2,0.2-0.6,0.2-0.6s0-1.7,0.8-2c0.8-0.3,1.8,1.7,2.9,2.4
	c0.8,0.6,1.4,0.4,1.4,0.4l2.9,0c0,0,1.5-0.1,0.8-1.3c-0.1-0.1-0.4-0.9-2.1-2.5c-1.8-1.7-1.6-1.4,0.6-4.3c1.3-1.8,1.9-2.9,1.7-3.3
	c-0.2-0.4-1.1-0.3-1.1-0.3l-3.3,0c0,0-0.2,0-0.4,0.1c-0.2,0.1-0.3,0.3-0.3,0.3s-0.5,1.4-1.2,2.5c-1.4,2.5-2,2.6-2.3,2.4
	c-0.6-0.4-0.4-1.4-0.4-2.2c0-2.4,0.4-3.4-0.7-3.6c-0.4-0.1-0.6-0.1-1.5-0.2c-1.2,0-2.1,0-2.7,0.3c-0.4,0.2-0.7,0.6-0.5,0.6
	c0.2,0,0.7,0.1,1,0.5c0.3,0.5,0.3,1.5,0.3,1.5s0.2,2.8-0.4,3.2c-0.4,0.2-1-0.2-2.3-2.5c-0.7-1.1-1.2-2.4-1.2-2.4s-0.1-0.2-0.3-0.4
	c-0.2-0.2-0.5-0.2-0.5-0.2l-3.1,0c0,0-0.5,0-0.6,0.2c-0.2,0.2,0,0.6,0,0.6s2.4,5.7,5.2,8.5C97.8,106.1,100.6,105.9,100.6,105.9"/>
</svg>
