<svg version="1.1" id="Layer_1" xmlns="http://www.w3.org/2000/svg" xmlns:xlink="http://www.w3.org/1999/xlink" x="0px" y="0px"
	 viewBox="0 0 30.1 30" enable-background="new 0 0 30.1 30" xml:space="preserve">
<path d="M20.3,14.9c-0.5-0.5-1.2-0.9-2-1.1v-0.1c0.6-0.2,1.1-0.6,1.4-1.2c0.3-0.5,0.5-1.1,0.5-1.8
	c0-0.6-0.1-1.1-0.4-1.5c-0.2-0.4-0.6-0.8-1.1-1.1c-0.5-0.2-0.9-0.4-1.5-0.5c-0.5-0.1-1.3-0.1-2.3-0.1h-4.8v13.7h5.5
	c1,0,1.7-0.1,2.4-0.3c0.6-0.2,1.2-0.5,1.7-0.9c0.4-0.3,0.8-0.8,1-1.3c0.3-0.5,0.4-1.1,0.4-1.8C21.1,16.2,20.8,15.4,20.3,14.9z
	 M16.5,12.3c-0.1,0.2-0.3,0.4-0.6,0.5c-0.3,0.1-0.5,0.2-0.7,0.2c-0.2,0-0.7,0-1.2,0h-0.4v-2.9h0.2c0.6,0,1.1,0,1.4,0
	c0.3,0,0.6,0.1,0.8,0.2c0.2,0.1,0.4,0.3,0.5,0.5c0.1,0.2,0.2,0.5,0.2,0.7C16.6,11.8,16.6,12,16.5,12.3z M17.3,18
	c-0.1,0.3-0.4,0.5-0.7,0.6c-0.4,0.2-0.7,0.2-1.1,0.3c-0.3,0-1,0-1.9,0h-0.2v-3.4h0.6c0.6,0,1.1,0,1.5,0c0.4,0,0.7,0.1,0.9,0.1
	c0.3,0.1,0.6,0.3,0.8,0.5c0.2,0.2,0.3,0.6,0.3,1C17.5,17.4,17.4,17.7,17.3,18z"/>
</svg>
