<svg width="150" height="50" viewBox="0 0 150 50" fill="none" xmlns="http://www.w3.org/2000/svg">
<path d="M0.134766 19.8825L3.2813 14.9683L14.5639 25.4731L11.4173 39.4496L0.134766 19.8825Z" fill="#E1231A"/>
<path d="M0.269692 19.8825L11.3275 39.089L14.3842 25.5633L3.28141 15.2386L0.269692 19.8825ZM11.2826 39.5398L0 19.9276V19.7923L3.14654 14.9231L3.37129 14.8779L14.6988 25.3829L14.7438 25.5182L11.5973 39.4947L11.2826 39.5398Z" fill="#E1231A"/>
<path d="M50.0304 27.322H51.9183C52.7724 27.322 54.6603 27.1868 54.6603 25.0678C54.6603 22.9488 52.7724 22.8135 51.9183 22.8135H50.0304V27.322ZM46.8389 19.7026H51.6486C57.1775 19.7026 57.8068 23.4447 57.8068 25.1129C57.8068 27.277 56.6381 30.4329 51.6486 30.4329H50.0304V36.9703H46.8389V19.7026Z" fill="#282729"/>
<path d="M63.0656 27.9532H64.9535C65.7176 27.9532 68.1449 27.8631 68.1449 25.3833C68.1449 22.9036 65.7176 22.8135 64.9535 22.8135H63.0656V27.9532ZM59.874 19.7026H64.8636C70.6622 19.7026 71.3364 23.5349 71.3364 25.2031C71.3364 27.9533 69.4935 30.3428 66.7065 30.6133L71.5612 36.9703H67.6505L63.2004 30.6133H63.1554V36.9703H59.964V19.7026H59.874Z" fill="#282729"/>
<path d="M87.4285 28.359C87.4285 25.1579 84.9113 22.4979 81.54 22.4979C78.1687 22.4979 75.6515 25.1128 75.6515 28.359C75.6515 31.6051 78.1687 34.2651 81.4951 34.2651C84.9563 34.3102 87.4285 31.6051 87.4285 28.359ZM90.62 28.4491C90.62 33.4536 86.6644 37.4211 81.54 37.4211C76.4156 37.4211 72.46 33.4536 72.46 28.4491C72.46 23.4446 76.3707 19.432 81.54 19.432C86.7093 19.3869 90.62 23.4446 90.62 28.4491Z" fill="#282729"/>
<path d="M105.409 19.7026L99.4759 28.359L105.409 36.9703H101.678L97.5879 31.019L93.5424 36.9703H89.8115L95.745 28.359L89.8115 19.7026H93.5424L97.5879 25.6989L101.678 19.7026H105.409Z" fill="#282729"/>
<path d="M110.354 19.7026H107.162V36.9703H110.354V19.7026Z" fill="#282729"/>
<path d="M127.03 19.7026H131.39V36.9703H128.199V24.0308L123.839 36.9703H121.142L116.781 24.0308V36.9703H113.59V19.7026H117.905L122.49 32.9126L127.03 19.7026Z" fill="#282729"/>
<path d="M143.527 29.396L141.594 24.3464L139.661 29.396H143.527ZM140.291 19.7026H142.853L150 36.9703H146.494L144.741 32.5069H138.403L136.65 36.9703H133.144L140.291 19.7026Z" fill="#282729"/>
<path d="M85.6754 46.2129C85.2708 47.3401 84.3718 48.1066 83.0683 48.1066C81.0904 48.1066 80.1465 46.5736 80.1465 45.2211C80.1465 44.0038 81.0455 42.4258 83.0233 42.4258C84.3718 42.4258 85.3607 43.1923 85.6754 44.3645H84.237C83.9673 43.8685 83.5177 43.6431 82.9783 43.6431C81.9445 43.6431 81.4051 44.4096 81.4051 45.2662C81.4051 46.1679 82.0344 46.8892 82.9783 46.8892C83.2031 46.8892 83.8774 46.8441 84.237 46.2129H85.6754Z" fill="#E1231A"/>
<path d="M87.4734 45.3112C87.4734 46.2129 88.1027 46.8892 89.0467 46.8892C89.9457 46.8892 90.575 46.213 90.575 45.2662C90.575 44.3645 89.9906 43.6431 89.0467 43.6431C88.1477 43.6431 87.4734 44.3644 87.4734 45.3112ZM91.7886 47.9262H90.6199V47.2049C89.9906 48.0615 89.1366 48.1066 88.8669 48.1066C87.5183 48.1066 86.2598 47.0245 86.2598 45.3112C86.2598 43.643 87.4285 42.4258 88.9119 42.4258C89.676 42.4258 90.2603 42.7414 90.6649 43.3275V42.5611H91.8336L91.7886 47.9262Z" fill="#E1231A"/>
<path d="M93.991 45.2662C93.991 46.3032 94.6203 46.8892 95.5193 46.8892C96.4183 46.8892 97.0926 46.213 97.0926 45.2662C97.0926 44.5448 96.643 43.6431 95.5642 43.6431C94.6203 43.6431 93.991 44.3645 93.991 45.2662ZM92.8223 42.6061H93.991V43.2824C94.4405 42.561 95.2946 42.4258 95.6991 42.4258C97.1375 42.4258 98.3512 43.5529 98.3512 45.2662C98.3512 46.7089 97.3623 48.1066 95.6991 48.1066C95.2496 48.1066 94.6203 47.9713 94.0809 47.3401V49.6846H92.8223V42.6061Z" fill="#E1231A"/>
<path d="M99.1602 42.6059H100.419V47.9261H99.1602V42.6059ZM99.1602 40.8477H100.419V42.0199H99.1602V40.8477Z" fill="#E1231A"/>
<path d="M102.892 40.8477V42.6059H103.656V43.7331H102.892V47.9261H101.633V43.7331H101.004V42.6059H101.633V40.8477H102.892Z" fill="#E1231A"/>
<path d="M105.319 45.3112C105.319 46.2129 105.948 46.8892 106.892 46.8892C107.791 46.8892 108.421 46.213 108.421 45.2662C108.421 44.3645 107.836 43.6431 106.892 43.6431C105.948 43.6431 105.319 44.3644 105.319 45.3112ZM109.589 47.9262H108.421V47.2049C107.791 48.0615 106.937 48.1066 106.668 48.1066C105.319 48.1066 104.061 47.0245 104.061 45.3112C104.061 43.643 105.229 42.4258 106.713 42.4258C107.477 42.4258 108.061 42.7414 108.466 43.3275V42.5611H109.634L109.589 47.9262Z" fill="#E1231A"/>
<path d="M111.882 40.8477H110.623V47.9712H111.882V40.8477Z" fill="#E1231A"/>
<path d="M116.151 45.1758C116.151 46.0325 116.691 46.7538 117.68 46.7538C118.623 46.7538 119.208 46.0324 119.208 45.2209C119.208 44.2741 118.579 43.6429 117.68 43.6429C116.691 43.6429 116.151 44.4094 116.151 45.1758ZM120.466 47.1144C120.466 49.008 119.073 50 117.635 50C116.376 50 115.297 49.3237 114.982 48.0613H116.466C116.691 48.7826 117.5 48.7827 117.635 48.7827C118.534 48.7827 119.208 48.1063 119.208 47.3399V47.1596C119.073 47.385 118.623 48.0161 117.635 48.0161C116.151 48.0161 114.938 46.7538 114.938 45.2209C114.938 43.5978 116.196 42.4707 117.635 42.4707C118.039 42.4707 118.803 42.5609 119.298 43.3724V42.651H120.466V47.1144Z" fill="#E1231A"/>
<path d="M121.501 42.6061H122.67V43.102C122.939 42.6512 123.389 42.3807 123.883 42.4709V43.6882C122.715 43.6882 122.76 44.7702 122.76 45.0858V47.9713H121.501V42.6061Z" fill="#E1231A"/>
<path d="M125.546 45.2662C125.546 46.1228 126.13 46.8892 127.074 46.8892C128.018 46.8892 128.602 46.1228 128.602 45.2662C128.602 44.4096 128.018 43.6431 127.074 43.6431C126.175 43.6431 125.546 44.4096 125.546 45.2662ZM129.906 45.2662C129.906 46.7991 128.692 48.1066 127.074 48.1066C125.456 48.1066 124.242 46.8442 124.242 45.2662C124.242 43.6882 125.411 42.4258 127.074 42.4258C128.737 42.4258 129.906 43.7333 129.906 45.2662Z" fill="#E1231A"/>
<path d="M135.391 47.9261H134.222V47.4302C133.773 48.0163 133.188 48.1065 132.829 48.1065C130.806 48.1065 130.671 46.3481 130.671 45.4915V42.606H131.93V45.3111C131.93 45.8972 131.975 46.8891 133.008 46.8891C134.042 46.8891 134.087 45.8972 134.087 45.3111V42.606H135.346L135.391 47.9261Z" fill="#E1231A"/>
<path d="M137.637 45.2662C137.637 46.3032 138.267 46.8892 139.166 46.8892C140.065 46.8892 140.739 46.213 140.739 45.2662C140.739 44.5448 140.29 43.6431 139.211 43.6431C138.267 43.6431 137.637 44.3645 137.637 45.2662ZM136.424 42.6061H137.593V43.2824C138.042 42.561 138.896 42.4258 139.301 42.4258C140.739 42.4258 141.953 43.5529 141.953 45.2662C141.953 46.7089 140.964 48.1066 139.301 48.1066C138.851 48.1066 138.177 47.9713 137.682 47.3401V49.6846H136.424V42.6061Z" fill="#E1231A"/>
<path d="M16.2725 36.9699H29.5329L40.5458 19.8374L24.3186 22.5877L16.2725 36.9699Z" fill="#9C2916"/>
<path d="M16.5423 36.8351H29.488L40.2312 20.0181L24.4086 22.7233L16.5423 36.8351ZM29.5329 37.1055H16.2725L16.1377 36.8801L24.1389 22.4978L24.2288 22.4077L40.4559 19.6123L40.5908 19.8377L29.6229 36.9702L29.5329 37.1055Z" fill="#9C2916"/>
<path d="M0.134766 19.8827L16.3619 17.0874L24.3631 2.70508H11.1027L0.134766 19.8827Z" fill="#9C2916"/>
<path d="M11.1927 2.84017L0.404566 19.6571L16.2271 16.952L24.0935 2.84017H11.1927ZM0.134874 20.0178L0 19.7924L10.9679 2.65988L11.1028 2.61475H24.3632L24.4981 2.84017L16.4519 17.2225L16.362 17.3127L0.134874 20.0178Z" fill="#9C2916"/>
<path d="M40.5453 19.8378L37.3988 24.7071L26.0713 14.2021L29.2178 0.225586L40.5453 19.8378Z" fill="#E1231A"/>
<path d="M26.2512 14.1569L37.3989 24.4814L40.4106 19.8376L29.3528 0.631239L26.2512 14.1569ZM37.309 24.797L25.9815 14.2922L25.9365 14.1569L29.0831 0.180383L29.3528 0.135254L40.6354 19.7475V19.8827L37.4888 24.752L37.309 24.797Z" fill="#E1231A"/>
</svg>
